<svg xmlns="http://www.w3.org/2000/svg" xmlns:xlink="http://www.w3.org/1999/xlink" width="1829.74mm" height="547.78mm" viewBox="0 0 4322.214176791233 1293.962343362678">
    <g id="499ef5ab-b4ee-4ab0-ae7b-7973fb0ec487">
<g style="">
		<g id="cf7c0c3d-c850-4b79-a4f9-c853bd192699">
<path style="stroke: rgb(193,193,193); stroke-width: 0; stroke-dasharray: none; stroke-linecap: butt; stroke-dashoffset: 0; stroke-linejoin: miter; stroke-miterlimit: 4; fill: rgb(0,0,0); fill-rule: nonzero; opacity: 1;" transform="matrix(5.054473 0 0 5.05451 2445.308213 580.434063) matrix(1 0 0 1 0 0)  translate(-532.503647, -455.5375)" d="M 83.20 534.11 C 76.46 531.77 71.20 527.51 68.29 522.01 C 66.03 517.75 66.00 517.19 66.02 484.09 C 66.04 453.71 66.22 450.12 67.87 446.50 C 70.26 441.27 77.79 434.43 82.65 433.08 C 85.15 432.39 104.19 432.01 137.00 432.01 C 185.24 432.01 187.63 432.10 190.43 433.95 C 194.39 436.55 195.92 439.62 195.96 445.00 C 195.99 449.97 193.57 454.56 189.81 456.65 C 188.13 457.58 181.34 457.94 164.80 457.96 C 137.47 458.01 133.37 458.71 127.20 464.36 C 120.99 470.07 119.05 474.75 119.02 484.09 C 119.00 490.11 119.48 492.58 121.29 496.02 C 123.84 500.84 131.00 506.35 136.82 507.97 C 138.84 508.53 150.53 508.99 162.78 508.99 C 186.32 509.00 189.52 509.51 193.37 513.82 C 194.40 514.97 195.47 518.03 195.77 520.61 C 196.47 526.86 194.07 531.31 188.54 533.98 C 184.53 535.92 182.50 536.00 136.43 535.97 C 92.64 535.94 88.04 535.78 83.20 534.11 M 207.48 534.80 C 207.18 534.04 207.07 501.94 207.22 463.46 L 207.50 393.50 L 209.90 389.65 C 214.26 382.63 221.06 380.33 228.38 383.39 C 234.57 385.97 235.76 389.54 236.16 406.68 C 236.54 423.21 237.01 424.67 243.38 429.44 C 246.03 431.41 247.73 431.52 284.32 432.00 C 327.23 432.56 325.92 432.34 332.28 440.23 C 334.17 442.58 336.23 446.03 336.86 447.90 C 337.63 450.21 338.00 463.37 338.00 489.11 L 338.00 526.93 L 335.05 530.29 C 333.38 532.19 330.33 534.18 328.04 534.87 C 324.51 535.93 323.41 535.83 319.65 534.17 C 311.46 530.54 311.00 529.07 311.00 506.28 C 311.00 484.36 310.02 476.53 306.52 470.49 C 301.53 461.87 290.12 456.84 280.47 459.01 C 273.80 460.50 266.58 466.20 263.48 472.42 C 261.13 477.13 261.00 478.29 261.00 494.51 C 261.00 513.60 259.98 518.96 255.08 525.73 C 253.18 528.35 250.09 530.79 246.32 532.64 C 240.76 535.37 239.77 535.52 224.25 535.84 C 211.15 536.11 207.90 535.91 207.48 534.80 M 367.20 534.10 C 361.11 532.00 356.96 528.42 353.16 522.00 L 350.50 517.50 L 350.50 483.90 C 350.50 447.51 350.30 449.02 356.34 440.32 C 358.29 437.51 360.81 435.47 364.05 434.07 C 368.69 432.08 370.56 432.00 413.99 432.00 C 443.59 432.00 460.62 432.38 463.50 433.10 C 469.34 434.57 475.29 439.85 478.49 446.39 L 481.10 451.73 L 480.80 485.11 L 480.50 518.50 L 477.22 523.22 C 472.97 529.34 468.78 532.43 462.07 534.40 C 457.47 535.76 450.22 536.00 414.57 535.97 C 376.44 535.94 372.00 535.76 367.20 534.10 M 439.39 505.61 C 448.20 500.45 452.01 493.69 451.98 483.28 C 451.95 474.69 449.76 469.72 443.61 464.30 C 430.67 452.91 410.16 458.26 404.04 474.62 C 401.60 481.16 401.48 485.11 403.55 491.21 C 406.19 498.95 412.58 504.91 422.00 508.41 C 425.46 509.69 435.07 508.15 439.39 505.61 M 492.00 496.05 C 492.00 470.35 492.40 454.24 493.12 450.88 C 493.97 446.90 495.34 444.47 498.87 440.68 C 507.11 431.83 505.78 432.05 551.78 432.02 C 597.30 432.00 597.88 432.08 600.64 438.68 C 603.52 445.57 600.92 454.27 595.20 456.93 C 593.74 457.61 582.40 458.00 563.97 458.00 C 532.26 458.00 528.88 458.51 525.36 463.83 C 522.83 467.66 522.97 476.14 525.63 479.72 C 528.94 484.20 532.57 485.44 544.08 485.99 C 553.64 486.45 555.00 486.76 558.23 489.22 C 564.97 494.37 566.00 498.23 566.00 518.32 L 566.00 536.00 L 529.00 536.00 L 492.00 536.00 L 492.00 496.05 M 630.20 534.10 C 623.88 531.92 620.18 528.61 616.91 522.22 L 614.50 517.50 L 614.22 474.75 L 613.94 432.00 L 629.72 432.01 C 638.40 432.01 647.10 432.46 649.07 433.00 C 653.75 434.30 660.51 440.18 663.28 445.36 C 665.30 449.13 665.55 451.33 666.03 470.00 C 666.61 492.47 667.29 495.22 673.66 501.14 C 687.67 514.16 709.57 508.72 714.92 490.89 C 715.55 488.78 716.01 478.15 716.02 465.38 C 716.04 446.25 716.28 442.99 717.90 439.42 C 722.41 429.48 738.42 429.59 742.60 439.60 C 743.85 442.57 744.04 449.29 743.79 480.82 L 743.50 518.50 L 740.67 523.23 C 739.11 525.84 736.50 529.09 734.87 530.46 C 728.67 535.68 725.32 536.00 678.57 535.97 C 639.47 535.94 635.01 535.77 630.20 534.10 M 764.50 534.59 C 757.26 531.37 754.20 523.59 757.47 516.70 C 760.37 510.59 762.87 509.64 777.50 509.03 C 784.99 508.72 791.42 507.97 792.67 507.25 C 801.08 502.46 801.12 489.71 792.73 485.35 C 790.94 484.42 785.62 483.34 780.76 482.94 C 773.01 482.29 771.49 481.82 767.26 478.78 C 760.48 473.91 756.90 467.68 756.25 459.59 C 755.80 453.92 756.08 452.35 758.42 447.57 C 761.59 441.10 768.29 434.83 773.81 433.18 C 776.59 432.34 792.23 432.00 827.42 432.00 C 882.47 432.00 880.87 431.82 885.03 438.54 C 888.35 443.92 887.39 450.33 882.61 454.72 L 879.03 458.00 L 855.76 458.06 C 829.74 458.12 826.82 458.65 823.28 463.90 C 819.62 469.35 820.42 475.76 825.36 480.50 C 827.26 482.32 829.22 482.55 846.97 483.03 C 866.23 483.56 866.58 483.61 871.86 486.50 C 886.73 494.65 891.24 509.90 882.71 523.24 C 878.76 529.42 874.33 532.56 866.72 534.59 C 859.27 536.57 768.97 536.57 764.50 534.59 M 928.22 418.44 C 926.08 416.94 926.00 416.30 926.00 400.57 L 926.00 384.26 L 921.06 383.60 C 915.64 382.88 913.99 380.76 915.98 377.04 C 917.00 375.14 918.01 375.00 931.06 375.00 L 945.04 375.00 L 946.20 377.54 C 947.73 380.91 945.72 382.96 940.14 383.71 L 936.00 384.26 L 936.00 400.13 C 936.00 414.67 935.83 416.17 934.00 418.00 C 931.59 420.41 931.08 420.45 928.22 418.44 M 949.75 418.91 C 948.65 418.28 948.00 416.71 948.01 414.70 C 948.03 409.44 953.88 377.85 955.11 376.37 C 956.75 374.39 962.39 374.67 964.34 376.82 C 965.25 377.83 967.65 384.16 969.67 390.89 C 971.77 397.88 973.65 402.57 974.05 401.81 C 974.43 401.09 976.20 395.55 977.97 389.50 C 979.74 383.45 981.89 377.71 982.75 376.75 C 984.69 374.58 990.30 374.46 992.04 376.55 C 993.36 378.14 998.96 408.93 998.99 414.71 C 999.00 418.33 996.63 420.24 993.23 419.35 C 990.50 418.64 990.34 418.11 988.32 403.46 C 987.37 396.61 986.31 391.34 985.96 391.75 C 985.60 392.16 983.83 397.90 982.02 404.50 C 979.96 412.03 978.00 417.15 976.76 418.25 C 971.90 422.55 969.26 419.38 965.06 404.22 C 963.20 397.50 961.39 392.00 961.04 392.00 C 960.69 392.00 959.61 397.74 958.64 404.75 C 957.68 411.76 956.58 417.79 956.20 418.14 C 954.73 419.48 951.43 419.88 949.75 418.91 Z" stroke-linecap="round"/>
</g>
</g>
</g>

  </svg>