<svg xmlns="http://www.w3.org/2000/svg" xmlns:xlink="http://www.w3.org/1999/xlink" width="1111px" height="872px" viewBox="0 0 1110.7553091974787 871.526726802789">
    <g id="825f1440-29f3-4ba6-a26b-ea3c4e44e639">
<g style="">
		<g id="825f1440-29f3-4ba6-a26b-ea3c4e44e639-child-0">
<path style="stroke: rgb(193,193,193); stroke-width: 0; stroke-dasharray: none; stroke-linecap: butt; stroke-dashoffset: 0; stroke-linejoin: miter; stroke-miterlimit: 4; fill: rgb(255,255,255); fill-rule: nonzero; opacity: 1;" transform="matrix(5.249698 0 0 5.251717 555.377655 435.763363) matrix(1 0 0 1 0 0)  translate(-103.207695, -164.975409)" d="M 27.77 245.66 C 14.98 241.29 1.88 208.63 -2.11 197.31 C -3.41 193.63 20.68 209.98 20.69 165.29 C 20.71 110.22 -6.49 137.95 -2.11 129.51 C 0.60 124.27 19.22 86.43 25.29 84.16 C 31.05 82.01 31.49 82.00 112.57 82.00 L 194.07 82.00 L 199.02 84.51 C 205.70 87.89 209.00 94.13 209.00 103.35 C 209.00 108.94 208.58 110.39 205.75 114.58 C 203.76 117.53 200.80 120.28 198.09 121.69 C 193.73 123.98 193.35 124.00 157.42 124.00 C 118.45 124.00 113.99 124.46 104.00 129.51 C 97.43 132.82 89.73 141.42 87.16 148.31 C 85.42 152.96 85.00 156.25 85.00 165.29 C 85.00 176.25 85.08 176.66 88.75 183.94 C 91.81 190.00 93.65 192.25 98.76 196.15 C 102.20 198.77 106.92 201.42 109.26 202.03 C 111.59 202.63 114.88 203.55 116.57 204.06 C 118.26 204.58 135.94 205.00 155.85 205.00 C 195.78 205.00 196.35 205.08 202.83 211.30 C 207.27 215.57 209.00 220.02 209.00 227.17 C 209.00 236.16 205.09 241.81 196.00 245.92 C 191.60 247.91 189.84 247.96 113.00 247.95 L 34.50 247.95 z" stroke-linecap="round"/>
</g>
</g>
</g>

  </svg>